Coordinates
version=1
nRows=15
nColumns=46
inDegrees=yes

Units are S.I. units (second, meters, Newtons, ...)
Angles are in degrees.

endheader
time	pelvis_tilt	pelvis_list	pelvis_rotation	pelvis_tx	pelvis_ty	pelvis_tz	bb_angle	bb_tx	bb_ty	bb_tz	hip_flexion_r	hip_adduction_r	hip_rotation_r	knee_angle_r	knee_angle_r_beta	ankle_angle_r	subtalar_angle_r	mtp_angle_r	crank_angle_r	hip_flexion_l	hip_adduction_l	hip_rotation_l	knee_angle_l	knee_angle_l_beta	ankle_angle_l	subtalar_angle_l	mtp_angle_l	crank_angle_l	lumbar_extension	lumbar_bending	lumbar_rotation	arm_flex_r	arm_add_r	arm_rot_r	elbow_flex_r	pro_sup_r	wrist_flex_r	wrist_dev_r	arm_flex_l	arm_add_l	arm_rot_l	elbow_flex_l	pro_sup_l	wrist_flex_l	wrist_dev_l
      7.50500000	    -23.07157869	     -3.17483889	     -2.93668202	      0.08565992	      0.98481240	     -0.22150192	      0.00000000	      0.50000000	      0.00000000	      0.25000000	     89.93906659	     -2.64107498	      4.23251961	    116.71498905	      2.03706085	     -1.29400146	     -9.53775803	      0.00000000	      0.00000000	     56.74151712	     -6.37488439	      3.46109271	     36.40754124	      0.63543147	     -2.80307932	     -9.86483055	      0.00000000	      0.00000000	    -42.74240329	      6.96964235	      4.66929587	     89.39239476	     -6.24676619	     40.92591097	     33.92497388	     38.16304773	      0.00000000	      0.00000000	     89.30233777	    -12.81683245	     50.59432755	     35.01068566	     35.45912401	      0.00000000	      0.00000000
      7.51000000	    -22.86718538	     -3.08705142	     -3.47463873	      0.08622427	      0.98507450	     -0.22143320	      0.00000000	      0.50000000	      0.00000000	      0.25000000	     91.74350685	     -2.33474411	      4.41528582	    117.69517857	      2.05416838	     -3.07688921	    -10.30211038	      0.00000000	      0.00000000	     54.80562487	     -6.89005826	      2.54230839	     34.71520172	      0.60589457	     -3.25571481	     -9.41151588	      0.00000000	      0.00000000	    -42.95536823	      6.87572129	      5.10574345	     89.39949527	     -6.32747853	     41.32243161	     34.26462880	     37.99516212	      0.00000000	      0.00000000	     89.35590384	    -12.97299673	     52.20138297	     34.14091740	     35.49174627	      0.00000000	      0.00000000
      7.51500000	    -22.83485300	     -3.30284293	     -3.95552048	      0.08655051	      0.98521425	     -0.22153886	      0.00000000	      0.50000000	      0.00000000	      0.25000000	     93.61908285	     -2.08966683	      4.30176813	    118.50020289	      2.06821870	     -4.13341842	     -9.89515233	      0.00000000	      0.00000000	     53.23211918	     -7.52923471	      2.07022331	     33.29715772	      0.58114503	     -3.46492076	     -8.76353017	      0.00000000	      0.00000000	    -43.09691842	      7.12513666	      5.61620644	     89.42605953	     -6.15793131	     41.36875656	     34.43724540	     38.00510866	      0.00000000	      0.00000000	     89.30500635	    -13.21788095	     52.20822841	     34.03196286	     35.48335207	      0.00000000	      0.00000000
      7.52000000	    -22.52709870	     -3.13651132	     -4.60099701	      0.08724295	      0.98614421	     -0.22114790	      0.00000000	      0.50000000	      0.00000000	      0.25000000	     95.27841135	     -1.66330215	      4.49934510	    119.09774697	      2.07864782	     -5.88174535	    -10.23694613	      0.00000000	      0.00000000	     51.27153801	     -8.10640626	      0.81973930	     31.87775182	      0.55637173	     -3.74660838	     -7.78507054	      0.00000000	      0.00000000	    -43.52619091	      6.84588472	      5.94577887	     89.43450946	     -6.04265143	     41.45999405	     34.77250666	     37.99726587	      0.00000000	      0.00000000	     89.30822517	    -13.47380206	     52.47706767	     33.81975614	     35.49272043	      0.00000000	      0.00000000
      7.52500000	    -22.44099070	     -3.30963810	     -5.09867188	      0.08772796	      0.98688399	     -0.22103850	      0.00000000	      0.50000000	      0.00000000	      0.25000000	     97.03549445	     -1.38319108	      4.29762967	    119.50569263	      2.08576781	     -7.39813956	    -10.10470396	      0.00000000	      0.00000000	     49.71639266	     -8.72123294	      0.22405768	     30.69296698	      0.53569333	     -3.91571424	     -7.00997296	      0.00000000	      0.00000000	    -43.76784351	      7.00969845	      6.43126500	     89.44991161	     -5.90573088	     41.48927268	     35.02555078	     38.00631490	      0.00000000	      0.00000000	     89.26015389	    -13.72927308	     52.56935828	     33.69417470	     35.49207279	      0.00000000	      0.00000000
      7.53000000	    -22.08498654	     -3.25680503	     -5.80766203	      0.08854797	      0.98823930	     -0.22045399	      0.00000000	      0.50000000	      0.00000000	      0.25000000	     98.53888215	     -0.89618799	      4.13066071	    119.74446530	      2.08993518	     -9.75419409	    -11.27240982	      0.00000000	      0.00000000	     47.91426334	     -9.45613132	     -1.18844201	     29.83586797	      0.52073413	     -3.59742030	     -5.71390681	      0.00000000	      0.00000000	    -44.31816894	      6.75636098	      6.87375848	     89.45070439	     -5.93307800	     41.54068913	     35.65316638	     37.96760385	      0.00000000	      0.00000000	     89.26668109	    -14.06029426	     53.13117708	     33.56771128	     35.57305272	      0.00000000	      0.00000000
      7.53500000	    -21.99060439	     -3.30278420	     -6.33146931	      0.08897860	      0.98936332	     -0.22016048	      0.00000000	      0.50000000	      0.00000000	      0.25000000	    100.22356984	     -0.56321359	      3.95062637	    119.81579280	      2.09118008	    -11.62848338	    -11.45843294	      0.00000000	      0.00000000	     46.53301520	    -10.02816479	     -2.10960682	     29.08956736	      0.50770873	     -3.77662361	     -4.41281296	      0.00000000	      0.00000000	    -44.62593870	      6.72265216	      7.32879371	     89.45741995	     -5.96820256	     41.60636823	     36.24281306	     37.82734162	      0.00000000	      0.00000000	     89.25358522	    -14.36831910	     53.64222938	     33.59861559	     35.70372667	      0.00000000	      0.00000000
      7.54000000	    -21.93880299	     -3.38204577	     -6.68640142	      0.08928194	      0.99053619	     -0.22016299	      0.00000000	      0.50000000	      0.00000000	      0.25000000	    101.82272943	     -0.36688061	      3.83699608	    119.76599615	      2.09031096	    -13.04506700	    -10.91698497	      0.00000000	      0.00000000	     45.30533657	    -10.44359819	     -2.71053573	     28.51833035	      0.49773876	     -3.88938945	     -3.71881443	      0.00000000	      0.00000000	    -44.88735194	      6.82494342	      7.61087361	     89.47603122	     -5.80558772	     41.62906758	     36.46044702	     37.82795441	      0.00000000	      0.00000000	     89.21964341	    -14.57025234	     53.65785707	     33.51506333	     35.70262153	      0.00000000	      0.00000000
      7.54500000	    -21.76672892	     -3.35976546	     -7.18052730	      0.08971994	      0.99211291	     -0.21961441	      0.00000000	      0.50000000	      0.00000000	      0.25000000	    103.19379607	      0.01307084	      3.64504063	    119.58520677	      2.08715559	    -14.74514072	    -11.29963689	      0.00000000	      0.00000000	     44.02819478	    -11.00639014	     -3.85981804	     28.25850219	      0.49320390	     -3.47790764	     -2.14722195	      0.00000000	      0.00000000	    -45.31691810	      6.67862605	      7.93643802	     89.47643328	     -5.71055633	     41.52359671	     37.01609339	     37.77143737	      0.00000000	      0.00000000	     89.21322940	    -14.86888120	     53.75619560	     33.55769463	     35.77016265	      0.00000000	      0.00000000
      7.55000000	    -21.78023191	     -3.43428559	     -7.40752965	      0.08982332	      0.99351376	     -0.21951531	      0.00000000	      0.50000000	      0.00000000	      0.25000000	    104.63109817	      0.06891943	      3.47066626	    119.28337007	      2.08188755	    -15.99109085	    -10.69270447	      0.00000000	      0.00000000	     43.08364563	    -11.33152692	     -4.34440647	     28.06786672	      0.48987669	     -3.40505590	     -1.61021868	      0.00000000	      0.00000000	    -45.56387267	      6.82368936	      8.17159916	     89.49915695	     -5.56663198	     41.49638555	     37.25887662	     37.77565387	      0.00000000	      0.00000000	     89.19737586	    -15.04583585	     53.72541773	     33.52582651	     35.77323715	      0.00000000	      0.00000000
      7.55500000	    -21.81440497	     -3.44733823	     -7.78777930	      0.08999152	      0.99507265	     -0.21915820	      0.00000000	      0.50000000	      0.00000000	      0.25000000	    105.94083262	      0.33113600	      3.28739835	    118.85016638	      2.07432672	    -17.18157764	    -10.24230215	      0.00000000	      0.00000000	     42.22717249	    -11.74289859	     -5.07336236	     28.10043210	      0.49044506	     -3.26111535	     -0.82158802	      0.00000000	      0.00000000	    -45.78730007	      6.76785278	      8.38194941	     89.50393947	     -5.40920638	     41.42898824	     37.59769806	     37.78310953	      0.00000000	      0.00000000	     89.17040252	    -15.26253584	     53.67392223	     33.50645152	     35.78054738	      0.00000000	      0.00000000
      7.56000000	    -21.74761607	     -3.31833026	     -8.10734860	      0.09011260	      0.99650522	     -0.21837486	      0.00000000	      0.50000000	      0.00000000	      0.25000000	    107.04927734	      0.68349012	      3.27542170	    118.44836112	      2.06731390	    -17.99019197	    -10.11415292	      0.00000000	      0.00000000	     41.50273444	    -12.14465893	     -6.16000298	     28.59661949	      0.49910517	     -2.55015101	      0.68388138	      0.00000000	      0.00000000	    -46.09261516	      6.55886755	      8.46456700	     89.50407833	     -5.30699626	     41.20478734	     38.23793576	     37.75242149	      0.00000000	      0.00000000	     89.17097318	    -15.57165488	     53.53128712	     33.68243143	     35.84293610	      0.00000000	      0.00000000
      7.56500000	    -21.76056154	     -3.30300530	     -8.07207006	      0.08996922	      0.99823738	     -0.21851014	      0.00000000	      0.50000000	      0.00000000	      0.25000000	    107.88404993	      0.63569605	      3.22289653	    117.87541140	      2.05731404	    -18.02572501	     -9.98923155	      0.00000000	      0.00000000	     40.90051277	    -12.14521275	     -6.28736736	     28.84117136	      0.50337340	     -2.54364071	      0.72615494	      0.00000000	      0.00000000	    -46.31689679	      6.68004838	      8.49664429	     89.51844126	     -5.27483331	     41.18551592	     38.29795911	     37.75251305	      0.00000000	      0.00000000	     89.16145404	    -15.59386665	     53.51488539	     33.68447315	     35.84444051	      0.00000000	      0.00000000
      7.57000000	    -21.98565825	     -3.42103856	     -8.53028585	      0.08954114	      0.99959872	     -0.21750960	      0.00000000	      0.50000000	      0.00000000	      0.25000000	    108.64316558	      1.28135506	      2.98362458	    117.02608764	      2.04249054	    -18.06025678	     -9.07026883	      0.00000000	      0.00000000	     40.84444538	    -12.87063192	     -7.15616980	     29.91038767	      0.52203475	     -2.03799721	      1.60188148	      0.00000000	      0.00000000	    -46.44112902	      6.63351252	      8.81991641	     89.52638353	     -5.00654268	     40.74795133	     39.06364182	     37.67480427	      0.00000000	      0.00000000	     89.15421357	    -16.01770660	     53.09810429	     34.04800988	     35.92818738	      0.00000000	      0.00000000
      7.57500000	    -22.16360271	     -3.39175995	     -8.63049342	      0.08902882	      1.00138454	     -0.21706729	      0.00000000	      0.50000000	      0.00000000	      0.25000000	    108.91422964	      1.56778239	      2.87644952	    116.02469400	      2.02501292	    -17.35033168	     -9.08863795	      0.00000000	      0.00000000	     40.80147719	    -13.05096381	     -7.40159818	     30.81893209	      0.53789184	     -2.07628253	      1.37950037	      0.00000000	      0.00000000	    -46.54012563	      6.61763246	      8.82112788	     89.54273621	     -4.83762228	     40.63426571	     39.30869385	     37.66067148	      0.00000000	      0.00000000	     89.17475878	    -16.17794500	     52.94125406	     34.09418113	     35.93568249	      0.00000000	      0.00000000
